PathFileType	4	(X/Y/Z)	C:\My Captures\DataSMARTClinic\0004~001 ID\0004~aa~STRATO_01\Standing_STRATO_ID_01.trc
DataRate	CameraRate	NumFrames	NumMarkers	Units	OrigDataRate	OrigDataStartFrame	OrigNumFrames
250.00	250.00	15	22	mm	250.00	1009	2711
Frame#	Time	r.should			l.should			c7			r.asis			l.asis			sacrum			r.bar1			l.bar1			r.knee1			l.knee1			r.bar2			r.mall			l.bar2			l.mall			r.met			r.heel			l.heel			l.met			r.mallm			l.mallm			r.kneem			l.kneem			
		X1	Y1	Z1	X2	Y2	Z2	X3	Y3	Z3	X4	Y4	Z4	X5	Y5	Z5	X6	Y6	Z6	X7	Y7	Z7	X8	Y8	Z8	X9	Y9	Z9	X10	Y10	Z10	X11	Y11	Z11	X12	Y12	Z12	X13	Y13	Z13	X14	Y14	Z14	X15	Y15	Z15	X16	Y16	Z16	X17	Y17	Z17	X18	Y18	Z18	X19	Y19	Z19	X20	Y20	Z20	X21	Y21	Z21	X22	Y22	Z22	

1008	4.032000	882.020652	1284.195185	339.868635	842.434168	1282.297134	35.563350	773.971856	1346.237898	188.946187	933.242440	873.490334	344.887972	952.018499	874.304533	76.420926	738.519847	900.400877	194.102436	863.445401	786.364675	392.525375	892.946720	773.953974	16.181596	837.981641	438.361883	355.803967	847.941637	434.702158	37.376504	818.643808	377.901077	360.728621	810.056210	79.291582	332.443357	839.866817	367.495120	31.801794	818.599105	76.015219	48.932716	933.902800	43.887459	313.280076	750.241280	43.718778	291.709036	748.137057	43.332744	81.489228	944.866896	41.304436	83.340131	812.074542	76.070741	252.515137	822.451472	81.950188	125.926673	823.728144	410.502881	228.649974	838.734925	406.228751	163.868561	
1009	4.036000	882.065535	1284.202337	339.862347	842.499554	1282.295108	35.566829	773.984075	1346.239090	188.949645	933.259249	873.476207	344.885826	952.045321	874.315739	76.425530	738.530636	900.405765	194.105044	863.461494	786.375284	392.509431	893.005252	773.968816	16.188357	838.000417	438.361973	355.799049	847.961664	434.703201	37.381791	818.643928	377.904415	360.726029	810.055017	79.295166	332.453609	839.876711	367.507637	31.786639	818.602383	76.018304	48.930001	933.912754	43.892171	313.282222	750.236034	43.711085	291.703939	747.599125	43.440387	81.156820	944.875300	41.298706	83.332732	812.083483	76.076657	252.513766	822.464883	81.945829	125.922561	823.733687	410.512626	228.655547	838.757515	406.237125	163.866162	
1010	4.040000	882.115722	1284.206867	339.864522	842.557013	1282.295108	35.568036	774.057984	1346.236110	188.930899	933.235705	873.470902	344.880134	952.049017	874.328315	76.418541	738.545775	900.410533	194.095567	863.462508	786.357582	392.491430	893.016458	773.950696	16.211057	838.019729	438.368112	355.789870	847.969651	434.701443	37.379161	818.640947	377.908051	360.722005	810.060561	79.293057	332.454145	839.888513	367.484838	31.801570	818.614721	76.025650	48.930611	933.920979	43.895338	313.282013	750.217617	43.713011	291.702449	748.429477	43.260053	81.667021	944.877684	41.308459	83.326802	812.089682	76.078840	252.516001	822.473109	81.953652	125.922203	823.733568	410.515726	228.649974	838.770509	406.248689	163.871631	
1011	4.044000	882.150769	1284.214020	339.864671	842.606306	1282.297373	35.562512	774.107337	1346.248269	188.928604	933.238089	873.487473	344.879031	952.057183	874.338090	76.421984	738.568187	900.418878	194.091141	863.456666	786.351860	392.509192	893.015683	773.955584	16.226521	837.983906	438.359439	355.790794	847.976923	434.704781	37.372537	818.636060	377.906293	360.718608	810.058713	79.295561	332.447767	839.924991	367.487997	31.804182	818.616986	76.033100	48.925042	933.917880	43.907054	313.272744	750.164688	43.737702	291.709274	750.591576	42.804006	82.930751	944.882333	41.312829	83.322570	812.089443	76.080993	252.518177	822.467029	81.963480	125.915289	823.737681	410.505056	228.649810	838.753998	406.240344	163.864344	
1012	4.048000	882.183611	1284.218431	339.853734	842.632174	1282.299519	35.557184	774.153471	1346.248031	188.924521	933.265567	873.484075	344.884485	952.063262	874.341130	76.421529	738.562465	900.428236	194.092005	863.469839	786.340237	392.513663	893.037200	773.960710	16.220849	837.964177	438.357353	355.791569	847.981215	434.695899	37.368588	818.616867	377.901375	360.716581	810.069978	79.310648	332.446843	839.923859	367.489606	31.790197	818.613887	76.035447	48.929304	933.908641	43.912426	313.280284	750.180185	43.722481	291.688234	751.125336	42.693771	83.222546	944.878638	41.308071	83.318174	812.076926	76.075971	252.513587	822.466254	81.965707	125.909179	823.734522	410.492897	228.648037	838.745952	406.240016	163.856924	
1013	4.052000	882.227540	1284.219027	339.848250	842.667162	1282.297015	35.549872	774.195910	1346.256733	188.919395	933.261216	873.496830	344.879270	952.060044	874.345124	76.421812	738.567591	900.440335	194.093406	863.452077	786.341131	392.489314	893.013537	773.973882	16.201876	837.957323	438.369870	355.790555	847.978830	434.698462	37.363295	818.610132	377.908081	360.710502	810.072005	79.327993	332.448781	839.943290	367.487043	31.779718	818.608463	76.039992	48.933409	933.906913	43.905817	313.281506	750.171065	43.715857	291.666776	750.271082	42.868361	82.718551	944.868803	41.319914	83.320171	812.076390	76.083586	252.515167	822.459698	81.967682	125.911385	823.741317	410.497487	228.651196	838.732958	406.241596	163.848877	
1014	4.056000	882.261634	1284.218788	339.857072	842.715800	1282.291889	35.551354	774.218976	1346.275687	188.922063	933.260143	873.515308	344.881684	952.062607	874.346375	76.419964	738.583982	900.448561	194.104403	863.496661	786.334634	392.468750	892.974317	773.981214	16.189408	837.950468	438.393325	355.795741	847.988486	434.704572	37.354074	818.604887	377.921432	360.711753	810.075402	79.332903	332.439363	839.947104	367.499888	31.773835	818.591535	76.045051	48.927605	933.895230	43.906860	313.290864	750.166118	43.713212	291.670084	749.077916	43.113608	82.034081	944.871783	41.323226	83.330050	812.071800	76.086260	252.512842	822.459996	81.973612	125.910535	823.741913	410.505056	228.642672	838.751793	406.241268	163.848221	
1015	4.060000	882.305622	1284.221649	339.866579	842.768550	1282.297850	35.542786	774.321735	1346.280217	188.919589	933.277249	873.504937	344.879299	952.066720	874.344349	76.422207	738.604367	900.450349	194.095448	863.502383	786.346197	392.466933	893.005252	773.968577	16.182370	837.950587	438.393593	355.800390	848.015606	434.716642	37.354492	818.602562	377.927721	360.712677	810.057163	79.315968	332.437634	839.950681	367.502958	31.782195	818.588853	76.049864	48.922714	933.899164	43.916360	313.291341	750.194430	43.731108	291.684389	750.735164	42.778201	82.995169	944.874167	41.333340	83.332360	812.076449	76.088928	252.516270	822.469950	81.982978	125.903115	823.743820	410.513520	228.627294	838.760853	406.242609	163.841337	
1016	4.064000	882.360160	1284.220815	339.863747	842.811167	1282.296896	35.537839	774.374962	1346.291542	188.910544	933.299303	873.491883	344.890594	952.078044	874.336004	76.413862	738.624573	900.457740	194.093972	863.447547	786.366105	392.467737	892.983556	773.969471	16.187858	837.939739	438.379496	355.796099	848.022223	434.703588	37.349969	818.605185	377.919495	360.709101	810.053110	79.308733	332.436323	839.963377	367.504030	31.771269	818.587959	76.049201	48.916668	933.909655	43.915205	313.289881	750.180840	43.721881	291.717947	750.148177	42.919885	82.662359	944.867730	41.337311	83.327174	812.075078	76.089509	252.509207	822.475731	81.980310	125.902891	823.747039	410.514295	228.619576	838.751376	406.242400	163.840741	
1017	4.068000	882.408023	1284.210801	339.853108	842.867732	1282.297373	35.532296	774.402142	1346.294880	188.910678	933.319330	873.480558	344.889730	952.095091	874.334097	76.399677	738.630116	900.457621	194.096148	863.469064	786.337852	392.458230	892.939806	773.973465	16.168483	837.921619	438.367248	355.790675	848.019183	434.702992	37.349872	818.595409	377.910316	360.699654	810.053170	79.305135	332.439184	839.965999	367.490441	31.764071	818.588138	76.046228	48.911374	933.904290	43.897666	313.288450	750.160575	43.733828	291.728348	749.036133	43.143883	81.996068	944.860339	41.325279	83.322942	812.059999	76.087788	252.505630	822.473586	81.973806	125.905603	823.751688	410.504997	228.626251	838.748395	406.240106	163.835570	
1018	4.072000	882.462502	1284.205317	339.848459	842.924595	1282.296062	35.523187	774.456501	1346.285462	188.904241	933.329344	873.458326	344.876945	952.120662	874.328434	76.387569	738.647878	900.456190	194.088638	863.486588	786.338389	392.462850	892.975688	773.973465	16.152982	837.910175	438.360453	355.781317	848.030508	434.708685	37.350159	818.589091	377.907455	360.700309	810.047209	79.304196	332.440943	839.962959	367.487967	31.746339	818.587720	76.032862	48.908420	933.891296	43.895051	313.282579	750.166476	43.724559	291.713208	749.773860	42.973608	82.390174	944.859743	41.317731	83.326370	812.056720	76.080605	252.499759	822.465420	81.967160	125.899822	823.725939	410.496950	228.634357	838.750124	406.241357	163.837627	
1019	4.076000	882.495999	1284.193397	339.843631	842.974722	1282.296658	35.514016	774.535239	1346.279025	188.893721	933.352053	873.448253	344.875455	952.157199	874.314547	76.382592	738.670588	900.455356	194.086835	863.483429	786.326766	392.461836	893.002629	773.951888	16.163616	837.918520	438.358456	355.772346	848.028302	434.690744	37.354201	818.585217	377.903223	360.698730	810.041904	79.298630	332.437366	839.963675	367.480069	31.763576	818.587124	76.036900	48.901729	933.881819	43.891862	313.279003	750.187755	43.727562	291.690320	748.953223	43.160088	81.939355	944.867253	41.313879	83.325133	812.058508	76.075383	252.495766	822.461486	81.956424	125.899583	823.712647	410.493970	228.635371	838.769495	406.227887	163.824856	
1020	4.080000	882.538199	1284.188867	339.840174	843.026757	1282.291889	35.510525	774.593472	1346.278906	188.895166	933.374166	873.447895	344.876558	952.164769	874.294519	76.374553	738.694072	900.468051	194.091529	863.473296	786.343396	392.424464	893.071234	773.959637	16.197458	837.927461	438.353449	355.765164	848.016977	434.670895	37.344344	818.585873	377.904266	360.701591	810.040653	79.291947	332.441211	839.952707	367.485046	31.766698	818.610191	76.037414	48.898697	933.895946	43.883950	313.281983	750.194669	43.724805	291.685522	750.740051	42.764015	82.993902	944.875538	41.308299	83.322376	812.076926	76.075390	252.494633	822.461605	81.950188	125.893056	823.720694	410.496265	228.635311	838.799477	406.224251	163.825154	
1021	4.084000	882.590830	1284.178257	339.835674	843.074441	1282.291055	35.508983	774.652302	1346.284866	188.886821	933.369637	873.442173	344.882190	952.176452	874.284267	76.367632	738.709629	900.475621	194.085106	863.503337	786.347985	392.410666	893.090010	773.976505	16.186545	837.916970	438.346356	355.778128	848.025918	434.662461	37.354287	818.586707	377.898425	360.701323	810.051441	79.288237	332.439899	839.948535	367.486238	31.751454	818.617284	76.022074	48.904419	933.902740	43.882072	313.285112	750.209332	43.704301	291.696966	751.194954	42.642273	83.248295	944.871724	41.295975	83.322853	812.088668	76.071754	252.494067	822.467268	81.947923	125.896722	823.730409	410.492867	228.632942	838.801920	406.210870	163.837790	
1022	4.088000	882.631183	1284.169078	339.840353	843.114853	1282.294512	35.500638	774.672031	1346.279144	188.876837	933.391154	873.418689	344.893873	952.217877	874.287307	76.364160	738.726497	900.476515	194.092035	863.534868	786.323190	392.424107	893.084407	773.977399	16.187038	837.941051	438.338012	355.777323	848.043501	434.668362	37.354305	818.592012	377.893776	360.708475	810.067892	79.282492	332.436919	839.980125	367.474258	31.770349	818.605661	76.015882	48.905816	933.891058	43.872051	313.292384	750.260711	43.680105	291.673601	751.327991	42.594679	83.315156	944.871128	41.282900	83.326980	812.083364	76.054640	252.506763	822.460890	81.940740	125.901341	823.716581	410.480618	228.626832	838.820219	406.206697	163.848132	
